<?xml version="1.0" encoding="utf-8"?>
<!-- Svg Vector Icons : http://www.onlinewebfonts.com/icon -->
<!DOCTYPE svg PUBLIC "-//W3C//DTD SVG 1.1//EN" "http://www.w3.org/Graphics/SVG/1.1/DTD/svg11.dtd">
<svg version="1.1" xmlns="http://www.w3.org/2000/svg" xmlns:xlink="http://www.w3.org/1999/xlink" x="0px" y="0px" viewBox="0 0 1000 1000" enable-background="new 0 0 1000 1000" xml:space="preserve">
<metadata> Svg Vector Icons : http://www.onlinewebfonts.com/icon </metadata>
<g><g transform="translate(0.000000,511.000000) scale(0.100000,-0.100000)"><path d="M773.5,4974.1c-104.7-45.9-211.9-176.1-229.7-278.2c-7.7-46-10.2-2139-7.7-4655.8l7.7-4574.1l53.6-68.9c28.1-38.3,84.2-94.5,122.5-122.6c68.9-53.6,89.3-53.6,2710.8-61.2c2945.6-7.7,2746.5-17.9,2889.4,168.5l68.9,89.3l7.6,1426.9c2.6,783.6,12.8,1424.3,20.4,1424.3c43.4,0,183.8-79.1,227.2-127.6c48.5-53.6,51.1-102.1,63.8-967.4c12.8-901,12.8-911.2,79.1-1092.5c158.3-428.8,505.4-750.4,934.2-862.8c188.9-48.5,543.7-48.5,735.1,0c479.9,125.1,880.6,543.7,980.2,1028.7c20.4,94.4,28.1,1156.3,28.1,3491.9v3359.1l-732.6,750.4c-405.8,413.5-773.4,768.3-821.9,791.3c-114.9,53.6-301.2,35.7-408.4-38.3c-109.8-79.1-165.9-196.6-163.3-342c2.5-158.3,56.2-232.3,428.8-605c288.4-288.4,293.5-293.5,293.5-408.4c0-344.6,227.2-778.5,497.7-944.4l89.3-56.2v-2915v-2915l-63.8-130.2c-97-191.4-227.2-273.1-459.5-283.3c-148-7.6-204.2,0-285.9,40.8c-130.2,68.9-252.7,206.8-285.9,329.3c-17.9,58.7-28.1,423.7-28.1,916.3c0,867.9-10.2,952.1-132.7,1197.1c-130.2,252.7-485,518.1-747.9,561.5c-56.2,7.7-132.7,23-171,28.1l-71.5,15.3l-5.1,2800.1l-7.6,2802.7l-74,94.4c-135.3,178.7,33.2,168.5-2853.7,168.5C1347.8,5007.3,834.8,5002.2,773.5,4974.1z M5202.1,2878.5v-931.7H3453.7H1705.2v913.8c0,502.9,7.7,924,17.9,931.7c7.7,10.2,796.4,17.9,1748.5,17.9h1730.6V2878.5z M2345.9,476.6c239.9-122.5,285.9-467.1,89.3-663.6c-268-268-709.6-84.2-709.6,296.1C1725.6,438.3,2049.8,629.7,2345.9,476.6z M3683.4,453.6c316.5-183.8,229.7-699.4-127.6-768.3c-285.9-53.6-566.7,211.9-510.5,482.4C3106.5,466.4,3423,606.8,3683.4,453.6z"/><path d="M7519.8,2296.6c-232.3-408.4-275.7-587.1-173.6-750.4c168.5-280.8,620.3-173.6,656,155.7c12.8,107.2,0,150.6-142.9,433.9c-86.8,173.6-171,329.3-188.9,342.1C7644.9,2498.2,7609.1,2454.8,7519.8,2296.6z"/></g></g>
</svg>